<!-- ProtonCore Android ic_proton_servers_filled.xml; GPL-3.0; geometry preserved. -->
<svg xmlns="http://www.w3.org/2000/svg" width="24" height="24" viewBox="0 0 24 24">
  <path fill="#fff" fill-rule="evenodd" d="M1.5 4.5C1.5 2.843 2.843 1.5 4.5 1.5H19.5C21.157 1.5 22.5 2.843 22.5 4.5V8.25C22.5 9.907 21.157 11.25 19.5 11.25H4.5C2.843 11.25 1.5 9.907 1.5 8.25V4.5ZM15.75 5.75C15.198 5.75 14.75 6.198 14.75 6.75C14.75 7.302 15.198 7.75 15.75 7.75C16.302 7.75 16.75 7.302 16.75 6.75C16.75 6.198 16.302 5.75 15.75 5.75ZM18.75 5.75C18.198 5.75 17.75 6.198 17.75 6.75C17.75 7.302 18.198 7.75 18.75 7.75C19.302 7.75 19.75 7.302 19.75 6.75C19.75 6.198 19.302 5.75 18.75 5.75ZM1.5 15.75C1.5 14.093 2.843 12.75 4.5 12.75H19.5C21.157 12.75 22.5 14.093 22.5 15.75V19.5C22.5 21.157 21.157 22.5 19.5 22.5H4.5C2.843 22.5 1.5 21.157 1.5 19.5V15.75ZM15.75 17C15.198 17 14.75 17.448 14.75 18C14.75 18.552 15.198 19 15.75 19C16.302 19 16.75 18.552 16.75 18C16.75 17.448 16.302 17 15.75 17ZM18.75 17C18.198 17 17.75 17.448 17.75 18C17.75 18.552 18.198 19 18.75 19C19.302 19 19.75 18.552 19.75 18C19.75 17.448 19.302 17 18.75 17Z"/>
</svg>
