<?xml version='1.0' encoding='utf-8'?>
<svg xmlns="http://www.w3.org/2000/svg" width="32" height="32" viewBox="0 0 32 32">
  <!--Source: https://raw.githubusercontent.com/ProtonVPN/android-app/cc1e29f8acd5f11f63701b48f97410e90fa6a71d/app/src/main/res/drawable/ic_kill_switch.xml; white mask for Quattro tint-->
  <path d="M10,4.75L22,4.75A2.25,2.25 0,0 1,24.25 7L24.25,22A2.25,2.25 0,0 1,22 24.25L10,24.25A2.25,2.25 0,0 1,7.75 22L7.75,7A2.25,2.25 0,0 1,10 4.75z" fill="none" stroke="#fff" stroke-width="1.5" />
  <path d="M8.286,7.038C7.509,7.58 7,8.481 7,9.5V25.5C7,27.157 8.343,28.5 10,28.5H22C23.657,28.5 25,27.157 25,25.5V9.5C25,8.481 24.492,7.58 23.715,7.038V24H8.286V7.038Z" fill="#fff" fill-rule="evenodd" />
  <path d="M16,8L16,12" fill="none" stroke="#fff" stroke-width="1.5" stroke-linecap="round" />
  <path d="M16,18.5m-2.75,0a2.75,2.75 0,1 1,5.5 0a2.75,2.75 0,1 1,-5.5 0" fill="none" stroke="#fff" stroke-width="1.5" stroke-linecap="round" />
</svg>
